REM MD5 e9fadd6499a303de6a2a7964ddb79073
FILE "PlayStation Underground Number 3 (USA) (Disc 1).bin" BINARY
  TRACK 01 MODE2/2352
    INDEX 01 00:00:00
  TRACK 02 AUDIO
    INDEX 00 65:28:36
    INDEX 01 65:30:36
  TRACK 03 AUDIO
    INDEX 00 67:53:16
    INDEX 01 67:55:16
  TRACK 04 AUDIO
    INDEX 00 69:50:16
    INDEX 01 69:52:16
REM LEADOUT 70:06:11
